<svg x="0px" y="0px" width="9.3px"
                                                                                        height="15.6px"
                                                                                        viewBox="0 0 9.3 15.6"
                                                                                        enable-background="new 0 0 9.3 15.6"
                                                                                        aria-hidden="true" role="img"
                                                                                        class="PageLeftArrowIcon__leftArrow___rOUht"
                                                                                        focusable="false">
                                                                                        <path fill="#bbb9ac" d="M1.16,7.142C1.157,7.15,1.155,7.158,1.151,7.166c-0.038,0.077-0.07,0.157-0.095,0.239
                                                                                        C1.051,7.423,1.05,7.443,1.046,7.461c-0.018,0.071-0.033,0.143-0.04,0.215C1.001,7.721,1.005,7.767,1.004,7.813
                                                                                        C1.005,7.859,1.001,7.904,1.006,7.95c0.007,0.072,0.022,0.144,0.04,0.215C1.05,8.183,1.051,8.203,1.057,8.221
                                                                                        c0.024,0.083,0.057,0.163,0.097,0.242C1.156,8.47,1.158,8.477,1.16,8.483c0.043,0.083,0.095,0.162,0.153,0.238
                                                                                        c0.001,0.001,0.002,0.003,0.003,0.004c0.01,0.013,0.016,0.026,0.026,0.039l5.054,6.023c0.523,0.623,1.453,0.705,2.076,0.181
                                                                                        c0.624-0.522,0.705-1.452,0.182-2.076L4.393,7.813l4.262-5.08C9.178,2.11,9.096,1.18,8.473,0.657
                                                                                        C7.85,0.135,6.919,0.215,6.396,0.838L1.343,6.863C1.332,6.875,1.326,6.888,1.317,6.901C1.314,6.904,1.313,6.907,1.311,6.91
                                                                                        C1.253,6.984,1.202,7.062,1.16,7.142z"></path>
                                                                                    </svg>